<?xml version="1.0" standalone="no"?>
<!DOCTYPE svg PUBLIC "-//W3C//DTD SVG 1.1//EN" "http://www.w3.org/Graphics/SVG/1.1/DTD/svg11.dtd">
<svg xmlns="http://www.w3.org/2000/svg">
<defs >
<font id="IBMPlexSerif" horiz-adv-x="616" ><font-face
    font-family="IBM Plex Serif"
    units-per-em="1000"
    panose-1="2 6 5 3 5 4 6 0 2 3"
    ascent="1025"
    descent="-275"
    alphabetic="0" />
<glyph unicode=" " glyph-name="space" horiz-adv-x="232" />
<glyph unicode="!" glyph-name="exclam" horiz-adv-x="280" d="M140 -12Q111 -12 95 5T78 48V54Q78 79 94 96T140 114Q169 114 185 97T202 54V48Q202 23 186 6T140 -12ZM99 487V698H181V487L157 184H123L99 487Z" />
<glyph unicode="&quot;" glyph-name="quotedbl" horiz-adv-x="415" d="M84 657V748H157V657L136 471H105L84 657ZM259 657V748H332V657L311 471H280L259 657Z" />
<glyph unicode="#" glyph-name="numbersign" horiz-adv-x="695" d="M189 210H59V259H198L228 439H98V488H236L272 698H327L292 488H449L484 698H540L505 488H635V439H497L466 259H596V210H458L422 0H367L402 210H245L210 0H154L189 210ZM253 259H410L441 439H284L253
259Z" />
<glyph unicode="$" glyph-name="dollar" horiz-adv-x="592" d="M278 -6Q184 -3 130 32T75 120Q75 151 92 169T138 188Q168 188 183 170T199 127Q199 84 156 65V62Q173 55 204 49T280 42V323Q180 349 129 395T77 524Q77 563 91 594T132 649T196 685T278 703V780H330V703Q414
698 461 664T509 578Q509 547 492 529T446 510Q416 510 401 528T385 571Q385 614 428 633V636Q414 643 390 648T328 656V399Q431 372 479 325T528 198Q528 114 478 61T330 -4V-82H278V-6ZM280 655Q216 650 183 619T149 540Q149 490 181 460T280 412V655ZM328 44Q394
52 426 86T458 177Q458 231 425 264T328 311V44Z" />
<glyph unicode="%" glyph-name="percent" horiz-adv-x="913" d="M223 354Q309 354 309 473V551Q309 670 223 670Q137 670 137 551V473Q137 354 223 354ZM690 28Q776 28 776 147V225Q776 344 690 344Q604 344 604 225V147Q604 28 690 28ZM223 314Q150 314 108 364T65
512Q65 609 107 659T223 710Q296 710 338 660T381 512Q381 415 339 365T223 314ZM690 -12Q617 -12 575 38T532 186Q532 283 574 333T690 384Q763 384 805 334T848 186Q848 89 806 39T690 -12ZM669 698H729L246 0H186L669 698Z" />
<glyph unicode="&amp;" glyph-name="ampersand" horiz-adv-x="710" d="M295 -12Q242 -12 198 0T123 37T73 96T55 176Q55 247 95 292T202 372L185 391Q153 425 134 464T115 550Q115 623 165 666T302 710Q342 710 374 700T428 671T463 626T476 570Q476 539 462 512T424
460T368 414T300 375L495 162Q512 197 522 241T535 333H462V379H666V333H586Q581 274 566 221T527 127L561 89Q583 66 607 56T675 46V0H609Q570 0 544 11T494 49L480 65Q444 28 398 8T295 -12ZM272 407Q338 441 370 476T402 554V568Q402 609 375 636T298 663Q248
663 222 633T195 558V548Q195 510 217 478T266 414L272 407ZM301 40Q349 40 386 55T450 98L230 341Q180 310 162 273T144 187V170Q144 108 188 74T301 40Z" />
<glyph unicode="&apos;" glyph-name="quotesingle" horiz-adv-x="241" d="M84 657V748H157V657L136 471H105L84 657Z" />
<glyph unicode="(" glyph-name="parenleft" horiz-adv-x="329" d="M306 -155Q263 -127 220 -82T143 24T87 156T65 312Q65 394 86 467T142 600T220 705T306 778L331 748Q290 717 257 674T201 579T166 469T154 350V273Q154 213 166 155T201 45T257 -50T331 -125L306
-155V-155Z" />
<glyph unicode=")" glyph-name="parenright" horiz-adv-x="329" d="M-2 -125Q39 -94 72 -51T128 44T163 154T175 273V350Q175 411 163 469T128 579T72 674T-2 748L23 778Q66 750 109 705T186 600T242 467T264 312Q264 229 243 157T187 24T109 -81T23 -155L-2 -125Z" />
<glyph unicode="*" glyph-name="asterisk" horiz-adv-x="442" d="M84 436L114 476L190 540L210 525L173 433L144 392L84 436ZM83 569L35 584L58 654L105 638L190 586L182 562L83 569ZM184 697V747H257V697L234 600H208L184 697ZM269 433L232 525L252 540L328 476L358
436L298 392L269 433ZM252 586L337 638L384 654L407 584L359 569L260 562L252 586Z" />
<glyph unicode="+" glyph-name="plus" horiz-adv-x="600" d="M272 279H66V331H272V534H328V331H534V279H328V76H272V279Z" />
<glyph unicode="," glyph-name="comma" horiz-adv-x="268" d="M45 -136Q79 -106 102 -74T132 -12H130Q102 -12 87 6T72 47V53Q72 79 89 96T134 114Q163 114 179 95T196 49V40Q196 18 188 -6T167 -54T135 -99T95 -136H45V-136Z" />
<glyph unicode="-" glyph-name="hyphen" horiz-adv-x="393" d="M66 340H327V270H66V340Z" />
<glyph unicode="." glyph-name="period" horiz-adv-x="268" d="M134 -12Q105 -12 89 5T72 48V54Q72 79 88 96T134 114Q163 114 179 97T196 54V48Q196 23 180 6T134 -12Z" />
<glyph unicode="/" glyph-name="slash" horiz-adv-x="366" d="M268 748H325L66 -143H9L268 748Z" />
<glyph unicode="0" glyph-name="zero" horiz-adv-x="600" d="M300 37Q342 37 371 53T419 101T446 176T455 276V422Q455 477 447 521T420 597T372 644T300 661Q258 661 229 645T181 597T154 522T145 422V276Q145 221 153 177T180 101T228 54T300 37ZM300 -12Q180
-12 116 80T51 349Q51 526 115 618T300 710Q420 710 484 618T549 349Q549 172 485 80T300 -12Z" />
<glyph unicode="1" glyph-name="one" horiz-adv-x="600" d="M88 45H261V629L81 546L66 589L270 698H347V45H514V0H88V45Z" />
<glyph unicode="2" glyph-name="two" horiz-adv-x="600" d="M61 65L288 294Q338 344 365 394T392 504V526Q392 589 356 625T254 662Q219 662 194 655T153 639V637Q166 632 177 617T189 579Q189 553 172 536T129 518Q101 518 85 536T69 584Q69 609 84 632T126 672T189
699T268 710Q369 710 427 660T486 519Q486 474 473 437T438 368T387 306T324 248L135 81V77H465V174H515V0H61V65Z" />
<glyph unicode="3" glyph-name="three" horiz-adv-x="600" d="M271 -12Q224 -12 186 -1T121 28T80 68T65 114Q65 144 82 162T125 180Q152 180 168 163T185 118Q185 98 174 82T149 61V59Q166 49 193 43T259 37Q337 37 381 71T426 172V206Q426 269 386 304T268 340H187V389H262Q335
389 373 423T411 510V548Q411 605 375 633T277 661Q240 661 213 655T169 639V637Q183 631 194 615T205 579Q205 553 188 536T144 518Q117 518 101 536T85 584Q85 607 99 629T138 670T200 699T282 710Q328 710 368 699T439 666T487 611T505 534Q505 500 493 473T460
425T413 392T357 371V367Q387 361 416 348T468 312T505 260T520 190Q520 143 502 106T451 42T372 2T271 -12Z" />
<glyph unicode="4" glyph-name="four" horiz-adv-x="600" d="M369 161H41V219L374 698H451V225H552V161H451V0H369V161ZM100 225H369V604H365L100 225Z" />
<glyph unicode="5" glyph-name="five" horiz-adv-x="600" d="M270 -12Q225 -12 188 -1T125 28T85 68T71 114Q71 144 88 162T132 180Q159 180 175 163T191 119Q191 99 181 84T155 63V59Q172 49 199 43T265 37Q349 37 390 78T431 190V213Q431 286 393 328T281 370Q233
370 203 350T155 304L101 315L126 698H493V615H167L148 342L152 341Q172 377 211 403T307 429Q353 429 392 416T461 374T508 305T525 207Q525 159 507 119T454 49T374 4T270 -12Z" />
<glyph unicode="6" glyph-name="six" horiz-adv-x="600" d="M301 -12Q186 -12 126 61T65 266Q65 361 94 437T174 570T293 662T440 710L453 669Q389 657 337 627T246 553T185 453T156 333L162 332Q170 350 184 368T218 400T266 423T327 432Q375 432 413 417T478
372T519 303T534 213Q534 163 517 122T468 51T394 5T301 -12ZM300 37Q338 37 365 49T409 83T435 134T443 199V217Q443 251 435 281T410 332T365 366T300 379Q262 379 235 367T191 333T165 281T157 217V199Q157 164 165 135T190 84T235 50T300 37Z" />
<glyph unicode="7" glyph-name="seven" horiz-adv-x="600" d="M468 615H119V499H69V698H528V638L259 0H188L468 615Z" />
<glyph unicode="8" glyph-name="eight" horiz-adv-x="600" d="M300 -12Q243 -12 199 2T124 43T77 105T60 186Q60 224 74 254T110 306T162 342T222 361V368Q195 372 170 386T125 422T94 472T82 532Q82 573 98 606T142 662T211 697T300 710Q349 710 389 698T457
662T502 606T518 532Q518 500 507 472T476 422T431 386T378 368V361Q409 356 438 342T489 307T526 255T540 186Q540 142 524 106T477 43T402 3T300 -12ZM300 35Q336 35 364 46T410 76T439 122T449 179V200Q449 230 439 256T411 302T364 333T300 344Q264 344 236
333T190 303T161 257T151 200V179Q151 149 161 123T189 77T236 46T300 35ZM300 389Q333 389 357 400T397 429T420 470T428 520V534Q428 560 421 583T397 625T357 654T300 665Q267 665 243 654T203 625T180 584T172 534V520Q172 494 179 471T203 429T243 400T300
389Z" />
<glyph unicode="9" glyph-name="nine" horiz-adv-x="600" d="M147 29Q211 41 263 71T354 145T415 245T444 365L438 366Q430 348 416 330T382 298T334 275T273 266Q225 266 187 281T122 326T81 395T66 485Q66 535 83 576T132 647T206 693T299 710Q414 710 474 637T535
432Q535 337 506 261T426 128T307 36T160 -12L147 29ZM300 319Q338 319 365 331T409 365T435 416T443 481V499Q443 533 435 563T410 614T365 648T300 661Q262 661 235 649T191 615T165 563T157 499V481Q157 446 165 417T190 366T235 332T300 319Z" />
<glyph unicode=":" glyph-name="colon" horiz-adv-x="288" d="M144 -12Q115 -12 99 5T82 48V54Q82 79 98 96T144 114Q173 114 189 97T206 54V48Q206 23 190 6T144 -12ZM144 402Q115 402 99 419T82 462V468Q82 493 98 510T144 528Q173 528 189 511T206 468V462Q206
437 190 420T144 402Z" />
<glyph unicode=";" glyph-name="semicolon" horiz-adv-x="288" d="M55 -136Q89 -106 112 -74T142 -12H140Q112 -12 97 6T82 47V53Q82 79 99 96T144 114Q173 114 189 95T206 49V40Q206 18 198 -6T177 -54T145 -99T105 -136H55V-136ZM144 402Q115 402 99 419T82
462V468Q82 493 98 510T144 528Q173 528 189 511T206 468V462Q206 437 190 420T144 402Z" />
<glyph unicode="&lt;" glyph-name="less" horiz-adv-x="600" d="M89 234V298L510 544V484L148 269V263L510 48V-12L89 234Z" />
<glyph unicode="=" glyph-name="equal" horiz-adv-x="600" d="M66 229H534V176H66V229ZM66 434H534V382H66V434Z" />
<glyph unicode="&gt;" glyph-name="greater" horiz-adv-x="600" d="M89 48L451 263V269L89 484V544L510 298V234L89 -12V48Z" />
<glyph unicode="?" glyph-name="question" horiz-adv-x="487" d="M170 371Q252 374 303 410T355 514V537Q355 597 320 629T228 661Q191 661 167 655T126 638V636Q137 632 149 617T162 579Q162 553 147 536T103 518Q75 518 59 535T42 584Q42 609 58 631T101 671T164
699T240 710Q285 710 323 697T388 660T430 603T445 528Q445 483 428 447T381 384T311 342T225 322V205H170V371ZM198 -12Q169 -12 153 5T136 48V54Q136 79 152 96T198 114Q227 114 243 97T260 54V48Q260 23 244 6T198 -12Z" />
<glyph unicode="@" glyph-name="at" horiz-adv-x="923" d="M453 -121Q369 -121 301 -92T183 -10T107 120T80 289Q80 382 107 459T184 592T304 679T460 710Q545 710 615 682T736 601T815 478T843 319Q843 268 834 223T805 143T754 89T677 69Q625 69 598 93T566
156H563Q544 117 515 93T440 69Q406 69 376 82T323 123T287 191T273 289Q273 345 286 386T323 455T376 495T440 509Q486 509 513 486T554 431H557L585 500H622V184Q622 108 681 108Q732 108 757 156T783 305V351Q783 418 762 476T699 576T597 643T460 668Q383 668
324 641T223 568T161 458T139 322V263Q139 189 161 127T224 21T323 -49T454 -74H679V-104Q628 -111 573 -116T453 -121ZM451 120Q504 120 530 145T557 219V359Q557 407 531 432T451 458Q397 458 372 426T346 339V239Q346 185 371 153T451 120Z" />
<glyph unicode="A" glyph-name="A" horiz-adv-x="686" d="M16 46H69L296 698H391L617 46H670V0H434V46H524L462 227H190L128 46H218V0H16V46ZM204 275H447L330 625H324L204 275Z" />
<glyph unicode="B" glyph-name="B" horiz-adv-x="670" d="M55 46H130V652H55V698H389Q477 698 526 653T576 533Q576 496 565 467T536 417T494 383T445 366V363Q471 361 499 350T550 318T588 266T603 194Q603 150 590 114T552 53T493 14T419 0H55V46ZM216 49H388Q446
49 478 83T511 171V215Q511 268 479 302T388 336H216V49ZM216 385H372Q426 385 455 416T484 495V539Q484 587 455 618T372 649H216V385Z" />
<glyph unicode="C" glyph-name="C" horiz-adv-x="649" d="M342 -12Q276 -12 222 13T130 85T71 199T50 349Q50 436 71 503T129 616T220 686T337 710Q402 710 445 689T503 635H507V698H579V494H507V546Q507 596 463 626T348 657Q295 657 257 638T194 585T158 507T146
413V292Q146 237 160 193T202 118T270 69T361 52Q432 52 480 89T550 183L589 164Q580 135 560 104T510 47T437 5T342 -12Z" />
<glyph unicode="D" glyph-name="D" horiz-adv-x="706" d="M55 46H130V652H55V698H347Q416 698 473 677T570 612T633 503T656 349Q656 261 634 196T571 87T473 22T347 0H55V46ZM216 49H338Q389 49 430 66T500 115T544 191T560 289V409Q560 463 545 507T501 582T431
631T338 649H216V49Z" />
<glyph unicode="E" glyph-name="E" horiz-adv-x="641" d="M55 46H130V652H55V698H571V530H499V649H216V384H414V464H474V255H414V335H216V49H509V177H581V0H55V46Z" />
<glyph unicode="F" glyph-name="F" horiz-adv-x="626" d="M55 46H130V652H55V698H571V530H499V649H216V369H414V449H474V240H414V320H216V46H311V0H55V46Z" />
<glyph unicode="G" glyph-name="G" horiz-adv-x="721" d="M341 -12Q275 -12 222 13T130 84T71 198T50 349Q50 436 71 503T131 617T225 686T350 710Q431 710 475 688T531 634H536V698H608V494H536V543Q536 599 489 628T361 657Q306 657 266 640T199 590T159 514T146
414V286Q146 232 160 188T202 112T267 64T351 47Q389 47 422 57T479 86T516 133T530 198V291H406V337H681V291H617V0H584L536 97H532Q524 77 508 58T469 23T413 -2T341 -12Z" />
<glyph unicode="H" glyph-name="H" horiz-adv-x="787" d="M55 46H130V652H55V698H291V652H216V380H571V652H496V698H732V652H657V46H732V0H496V46H571V331H216V46H291V0H55V46Z" />
<glyph unicode="I" glyph-name="I" horiz-adv-x="346" d="M55 46H130V652H55V698H291V652H216V46H291V0H55V46Z" />
<glyph unicode="J" glyph-name="J" horiz-adv-x="457" d="M153 -12Q84 -12 50 15T15 84Q15 112 31 130T76 149Q101 149 115 133T129 91Q129 71 119 59T98 42V39Q108 36 122 34T153 32Q251 32 251 151V652H156V698H412V652H337V159Q337 73 289 31T153 -12Z" />
<glyph unicode="K" glyph-name="K" horiz-adv-x="707" d="M55 46H130V652H55V698H291V652H216V318H220L313 423L523 652H443V698H658V652H591L375 419L616 46H685V0H446V46H517L315 357L216 250V46H291V0H55V46Z" />
<glyph unicode="L" glyph-name="L" horiz-adv-x="594" d="M55 46H130V652H55V698H291V652H216V49H472V177H544V0H55V46Z" />
<glyph unicode="M" glyph-name="M" horiz-adv-x="872" d="M55 46H130V652H55V698H231L435 266H438L652 698H817V652H742V46H817V0H581V46H656V597H652L608 500L416 117L245 475L189 597H185V46H260V0H55V46Z" />
<glyph unicode="N" glyph-name="N" horiz-adv-x="778" d="M55 46H130V652H55V698H224L599 138H603V652H528V698H733V652H658V0H591L189 601H185V46H260V0H55V46Z" />
<glyph unicode="O" glyph-name="O" horiz-adv-x="716" d="M358 41Q409 41 448 59T515 111T556 191T570 292V406Q570 461 556 507T515 586T449 638T358 657Q307 657 268 639T201 587T160 507T146 406V292Q146 237 160 191T201 112T267 60T358 41ZM358 -12Q289 -12
232 13T135 85T72 198T50 349Q50 433 72 499T134 613T232 685T358 710Q427 710 484 685T581 613T644 500T666 349Q666 265 644 199T582 85T484 13T358 -12Z" />
<glyph unicode="P" glyph-name="P" horiz-adv-x="625" d="M55 46H130V652H55V698H381Q476 698 526 651T577 511Q577 420 525 370T379 320H216V46H311V0H55V46ZM216 369H374Q428 369 456 403T485 486V532Q485 581 457 615T374 649H216V369Z" />
<glyph unicode="Q" glyph-name="Q" horiz-adv-x="716" d="M514 -173Q485 -173 464 -169T427 -157T397 -135T371 -102L307 -8Q248 1 201 29T120 103T68 211T50 349Q50 433 72 499T134 613T232 685T358 710Q427 710 484 685T581 613T644 500T666 349Q666 272 647
209T594 100T510 26T400 -9L445 -71Q456 -87 465 -97T485 -114T508 -124T537 -127H567V-173H514ZM358 41Q409 41 448 59T515 111T556 191T570 292V406Q570 461 556 507T515 586T449 638T358 657Q307 657 268 639T201 587T160 507T146 406V292Q146 237 160 191T201
112T267 60T358 41Z" />
<glyph unicode="R" glyph-name="R" horiz-adv-x="672" d="M55 46H130V652H55V698H381Q474 698 525 652T577 513Q577 442 538 395T422 333L539 116Q559 80 584 63T646 46H655V0H591Q562 0 543 6T508 23T482 51T458 90L334 321H216V46H291V0H55V46ZM216 370H373Q427
370 456 403T485 486V532Q485 581 456 615T373 649H216V370Z" />
<glyph unicode="S" glyph-name="S" horiz-adv-x="588" d="M295 -12Q232 -12 193 7T137 60H132V0H60V205H132V159Q132 134 139 113T164 75T210 50T280 41Q367 41 405 78T444 177Q444 230 415 260T322 307L267 321Q174 345 123 393T72 525Q72 567 88 601T133 660T202
697T292 710Q349 710 385 693T437 644H443V698H515V503H443V549Q443 574 436 594T410 628T363 649T292 657Q222 657 187 625T152 541Q152 487 183 457T283 408L334 395Q425 371 474 323T523 197Q523 152 508 114T464 47T393 4T295 -12Z" />
<glyph unicode="T" glyph-name="T" horiz-adv-x="652" d="M188 46H283V649H107V530H35V698H617V530H545V649H369V46H464V0H188V46Z" />
<glyph unicode="U" glyph-name="U" horiz-adv-x="735" d="M375 -12Q307 -12 259 3T179 52T134 139T120 269V652H45V698H281V652H206V253Q206 200 215 161T244 97T298 58T380 45Q478 45 519 96T560 253V652H485V698H690V652H615V282Q615 206 603 151T563 59T488
6T375 -12Z" />
<glyph unicode="V" glyph-name="V" horiz-adv-x="664" d="M74 652H21V698H255V652H165L268 342L347 86H351L432 343L530 652H440V698H643V652H590L375 0H289L74 652Z" />
<glyph unicode="W" glyph-name="W" horiz-adv-x="968" d="M76 652H23V698H257V652H167L297 102H301L454 698H539L696 102H700L831 652H741V698H945V652H892L726 0H643L484 584H480L325 0H242L76 652Z" />
<glyph unicode="X" glyph-name="X" horiz-adv-x="669" d="M18 46H78L289 340L83 652H23V698H261V652H187L346 405H350L516 652H450V698H644V652H584L378 363L589 46H649V0H410V46H484L322 297H318L148 46H214V0H18V46Z" />
<glyph unicode="Y" glyph-name="Y" horiz-adv-x="634" d="M179 46H274V281L73 652H20V698H261V652H171L332 342H336L501 652H411V698H614V652H561L360 286V46H455V0H179V46Z" />
<glyph unicode="Z" glyph-name="Z" horiz-adv-x="637" d="M60 49L463 649H141V530H69V698H563V649L160 49H500V177H572V0H60V49Z" />
<glyph unicode="[" glyph-name="bracketleft" horiz-adv-x="284" d="M61 760H255V715H137V-93H255V-138H61V760Z" />
<glyph unicode="\" glyph-name="backslash" horiz-adv-x="365" d="M41 748H98L357 -143H300L41 748Z" />
<glyph unicode="]" glyph-name="bracketright" horiz-adv-x="284" d="M29 -93H147V715H29V760H223V-138H29V-93Z" />
<glyph unicode="^" glyph-name="asciicircum" horiz-adv-x="600" d="M58 339L266 698H334L542 339L497 315L302 639H298L103 315L58 339Z" />
<glyph unicode="_" glyph-name="underscore" horiz-adv-x="564" d="M25 -102H539V-157H25V-102Z" />
<glyph unicode="`" glyph-name="grave" horiz-adv-x="600" d="M181 738L258 776L334 599L307 585L181 738Z" />
<glyph unicode="a" glyph-name="a" horiz-adv-x="546" d="M203 -12Q131 -12 91 25T50 128Q50 165 62 193T101 241T173 270T280 280H354V356Q354 417 325 449T236 482Q210 482 188 478T152 465V463Q163 457 173 445T184 411Q184 385 169 371T129 356Q105 356 90
370T74 414Q74 436 87 456T124 493T183 518T264 528Q345 528 390 486T436 368V43H511V8Q500 0 482 -6T440 -12Q401 -12 380 10T359 69V76H354Q347 59 336 43T306 15T263 -4T203 -12ZM238 43Q286 43 320 67T354 143V240H289Q246 240 217 234T171 215T147 184T139
142V121Q139 83 165 63T238 43Z" />
<glyph unicode="b" glyph-name="b" horiz-adv-x="598" d="M337 -12Q275 -12 237 14T182 77H178L132 0H99V683L25 696V731L181 760V438H185Q202 475 239 501T337 528Q433 528 490 459T548 258Q548 127 491 58T337 -12ZM313 45Q382 45 420 91T459 216V300Q459 378
421 424T313 471Q289 471 265 464T223 444T193 412T181 368V148Q181 124 192 105T222 72T265 52T313 45Z" />
<glyph unicode="c" glyph-name="c" horiz-adv-x="516" d="M280 -12Q224 -12 181 7T107 62T61 147T45 258Q45 320 62 370T112 455T188 509T287 528Q368 528 415 494T463 406Q463 374 447 356T401 338Q370 338 355 356T340 399Q340 421 351 437T382 462V465Q369
473 349 477T296 481Q261 481 232 468T181 432T148 377T136 308V234Q136 193 147 160T178 102T227 65T292 52Q353 52 388 77T444 144L476 123Q467 97 450 73T409 30T353 0T280 -12Z" />
<glyph unicode="d" glyph-name="d" horiz-adv-x="608" d="M261 -12Q165 -12 108 57T50 258Q50 389 107 458T261 528Q321 528 358 502T413 439H417V683L342 696V731L499 760V65L573 52V18L417 -12V78H413Q396 41 359 15T261 -12ZM285 45Q309 45 333 52T375 72T405
104T417 148V368Q417 392 406 411T376 444T333 464T285 471Q216 471 178 425T139 300V216Q139 138 177 92T285 45Z" />
<glyph unicode="e" glyph-name="e" horiz-adv-x="536" d="M279 -12Q224 -12 181 7T107 62T61 147T45 258Q45 318 62 367T110 453T183 508T275 528Q326 528 366 510T433 460T476 382T491 284V261H136V235Q136 150 178 101T292 52Q354 52 390 77T448 144L481 123Q471
97 454 73T411 30T353 0T279 -12ZM136 307H405V317Q405 352 398 382T374 434T334 468T275 481Q241 481 215 469T172 435T145 384T136 319V307Z" />
<glyph unicode="f" glyph-name="f" horiz-adv-x="342" d="M45 46H119V467H45V516H119V597Q119 633 131 663T164 714T215 748T280 760Q334 760 365 739T397 679Q397 653 383 638T345 622Q323 622 310 636T296 670Q296 705 323 716V718Q316 720 307 721T287 722Q245
722 223 692T201 608V516H313V467H201V46H295V0H45V46Z" />
<glyph unicode="g" glyph-name="g" horiz-adv-x="544" d="M262 -212Q202 -212 160 -203T92 -178T55 -139T43 -88Q43 -68 52 -51T76 -21T110 1T149 16V20Q86 42 86 105Q86 145 111 168T171 200V205Q124 225 97 264T69 358Q69 397 83 428T124 482T187 516T266 528Q313
528 346 516T403 485Q404 543 425 564T476 585Q498 585 512 572T527 537Q527 516 514 503T476 489Q448 489 433 509H430V459Q441 444 453 420T465 358Q465 319 450 287T409 233T346 199T266 187Q238 187 213 193Q187 188 166 172T145 132Q145 107 164 97T228 87H346Q434
87 476 52T519 -50Q519 -124 454 -168T262 -212ZM267 230Q322 230 349 259T377 338V377Q377 427 350 456T267 485Q212 485 185 456T157 377V338Q157 288 184 259T267 230ZM116 -83Q116 -123 150 -143T243 -163H290Q365 -163 407 -138T450 -71Q450 -33 424 -14T333
6H177Q145 -8 131 -31T116 -83Z" />
<glyph unicode="h" glyph-name="h" horiz-adv-x="624" d="M35 46H109V683L35 696V731L191 760V439H195Q201 454 213 470T243 499T286 520T342 528Q435 528 475 480T515 334V46H589V0H359V46H433V327Q433 400 404 435T312 471Q290 471 269 465T230 446T202 414T191
369V46H265V0H35V46Z" />
<glyph unicode="i" glyph-name="i" horiz-adv-x="315" d="M165 635Q139 635 126 650T112 688V693Q112 715 125 730T165 746Q191 746 205 731T219 693V688Q219 666 205 651T165 635ZM50 46H124V451L50 464V498L206 528V46H280V0H50V46Z" />
<glyph unicode="j" glyph-name="j" horiz-adv-x="303" d="M58 -212Q8 -212 -16 -190T-40 -134Q-40 -112 -27 -97T9 -82Q31 -82 42 -95T54 -129Q54 -143 48 -154T32 -169V-172Q41 -176 58 -176Q120 -176 120 -96V451L46 464V498L202 528V-52Q202 -133 164 -172T58
-212ZM161 635Q135 635 122 650T108 688V693Q108 715 121 730T161 746Q187 746 201 731T215 693V688Q215 666 201 651T161 635Z" />
<glyph unicode="k" glyph-name="k" horiz-adv-x="584" d="M35 46H109V683L35 696V731L191 760V237H196L280 331L406 470H338V516H552V470H479L334 319L515 46H572V0H359V46H423L278 264L191 173V46H265V0H35V46Z" />
<glyph unicode="l" glyph-name="l" horiz-adv-x="300" d="M35 46H109V683L35 696V731L191 760V46H265V0H35V46Z" />
<glyph unicode="m" glyph-name="m" horiz-adv-x="953" d="M50 46H124V451L50 464V498L204 528V438H208Q214 454 226 470T256 499T299 520T353 528Q419 528 458 503T512 426H515Q523 444 536 462T568 495T612 519T672 528Q765 528 804 479T844 333V46H918V0H688V46H762V327Q762
471 643 471Q621 471 600 465T562 446T535 414T525 368V46H599V0H369V46H443V327Q443 471 325 471Q302 471 281 465T243 446T216 414T206 368V46H280V0H50V46Z" />
<glyph unicode="n" glyph-name="n" horiz-adv-x="639" d="M50 46H124V451L50 464V498L204 528V438H208Q214 453 226 469T257 498T301 519T356 528Q449 528 489 480T530 334V46H604V0H374V46H448V327Q448 471 327 471Q305 471 284 465T245 446T217 414T206 369V46H280V0H50V46Z"
/>
<glyph unicode="o" glyph-name="o" horiz-adv-x="564" d="M282 37Q319 37 346 49T391 84T417 137T426 204V312Q426 348 418 378T392 431T347 466T282 479Q244 479 217 467T173 432T147 379T138 312V204Q138 168 146 138T172 85T217 50T282 37ZM282 -12Q229 -12
185 7T110 61T62 146T45 258Q45 319 62 369T110 454T185 509T282 528Q335 528 379 509T454 455T502 369T519 258Q519 196 502 147T454 62T379 7T282 -12Z" />
<glyph unicode="p" glyph-name="p" horiz-adv-x="613" d="M40 -154H114V451L40 464V498L196 528V438H200Q217 475 254 501T352 528Q448 528 505 459T563 258Q563 127 506 58T352 -12Q292 -12 255 14T200 77H196V-154H290V-200H40V-154ZM328 45Q397 45 435 91T474
216V300Q474 378 436 424T328 471Q304 471 280 464T238 444T208 412T196 368V148Q196 124 207 105T237 72T280 52T328 45Z" />
<glyph unicode="q" glyph-name="q" horiz-adv-x="598" d="M323 -154H417V78H413Q396 41 359 15T261 -12Q165 -12 108 57T50 258Q50 389 107 458T261 528Q323 528 361 502T416 439H420L466 516H499V-154H573V-200H323V-154ZM285 45Q309 45 333 52T375 72T405 104T417
148V368Q417 392 406 411T376 444T333 464T285 471Q216 471 178 425T139 300V216Q139 138 177 92T285 45Z" />
<glyph unicode="r" glyph-name="r" horiz-adv-x="443" d="M50 46H124V451L50 464V498L204 528V438H209Q216 454 226 470T252 499T288 520T336 528Q380 528 406 507T433 446Q433 416 418 399T379 382Q352 382 336 396T320 434Q320 454 328 466T348 481V483Q344
484 338 484T323 485Q302 485 281 475T244 448T217 410T206 368V46H300V0H50V46Z" />
<glyph unicode="s" glyph-name="s" horiz-adv-x="488" d="M252 -12Q205 -12 170 7T124 51H120V0H60V155H120V134Q120 91 147 64T236 37Q293 37 324 57T356 123Q356 193 271 212L211 225Q137 241 100 279T62 383Q62 451 109 489T235 528Q283 528 313 513T354 474H358V516H418V361H358V399Q358
479 246 479Q195 479 167 460T138 398Q138 363 161 340T224 307L280 295Q357 279 395 242T434 139Q434 107 422 80T386 32T329 0T252 -12Z" />
<glyph unicode="t" glyph-name="t" horiz-adv-x="353" d="M202 -6Q149 -6 129 15T109 89V467H43V516H52Q73 516 85 519T105 527T116 541T123 561L146 650H191V516H324V467H191V49H324V16Q315 11 302 7T272 0T237 -4T202 -6Z" />
<glyph unicode="u" glyph-name="u" horiz-adv-x="619" d="M278 -12Q185 -12 145 36T104 183V451L30 464V498L186 528V190Q186 45 307 45Q329 45 350 51T389 70T417 102T428 147V451L354 464V498L510 528V65L584 52V18L430 -12V78H426Q420 63 408 47T377 18T333
-3T278 -12Z" />
<glyph unicode="v" glyph-name="v" horiz-adv-x="534" d="M54 470H2V516H216V470H144L283 92H287L422 470H350V516H532V470H480L299 0H236L54 470Z" />
<glyph unicode="w" glyph-name="w" horiz-adv-x="777" d="M60 470H8V516H215V470H143L246 80H250L375 516H444L559 80H563L668 470H596V516H769V470H717L586 0H506L395 405H391L270 0H190L60 470Z" />
<glyph unicode="x" glyph-name="x" horiz-adv-x="561" d="M31 46H88L239 252L86 470H34V516H244V470H185L297 306H301L407 470H345V516H526V470H469L326 267L479 46H531V0H320V46H379L268 213H264L150 46H212V0H31V46Z" />
<glyph unicode="y" glyph-name="y" horiz-adv-x="534" d="M123 -212Q72 -212 49 -191T26 -134Q26 -108 40 -92T80 -76Q103 -76 115 -89T128 -126Q128 -143 120 -153T101 -167V-170Q112 -174 127 -174Q153 -174 178 -152T223 -78L244 -21L54 470H2V516H216V470H144L283
92H287L422 470H350V516H532V470H480L266 -86Q245 -141 210 -176T123 -212Z" />
<glyph unicode="z" glyph-name="z" horiz-adv-x="508" d="M50 35L345 469H118V361H58V516H450V481L155 47H398V155H458V0H50V35Z" />
<glyph unicode="{" glyph-name="braceleft" horiz-adv-x="327" d="M195 -138Q156 -138 137 -116T117 -62V197Q117 241 89 263T16 285V337Q60 337 88 359T117 425V684Q117 716 136 738T195 760H293V715H193V442Q193 418 184 397T160 359T125 331T82 316V306Q104
302 124 291T160 263T184 225T193 180V-93H293V-138H195V-138Z" />
<glyph unicode="|" glyph-name="bar" horiz-adv-x="298" d="M122 760H176V-138H122V760Z" />
<glyph unicode="}" glyph-name="braceright" horiz-adv-x="327" d="M34 -93H134V180Q134 204 143 225T167 263T202 291T245 306V316Q222 320 202 331T167 359T143 397T134 442V715H34V760H132Q171 760 190 738T210 684V425Q210 381 238 359T311 337V285Q267 285
239 263T210 197V-62Q210 -94 191 -116T132 -138H34V-93Z" />
<glyph unicode="~" glyph-name="asciitilde" horiz-adv-x="600" d="M420 244Q384 244 355 254T291 281Q261 295 234 305T177 315Q151 315 132 307T89 282L64 315Q85 340 110 354T180 369Q216 369 245 359T309 332Q339 318 366 308T423 298Q449 298 468 305T511
330L536 298Q515 273 490 259T420 244Z" />
<glyph unicode="&#xa0;" glyph-name="uni00A0" horiz-adv-x="232" />
<glyph unicode="&#xa1;" glyph-name="exclamdown" horiz-adv-x="280" d="M140 402Q111 402 95 419T78 462V468Q78 493 94 510T140 528Q169 528 185 511T202 468V462Q202 437 186 420T140 402ZM99 29L123 332H157L181 29V-182H99V29Z" />
<glyph unicode="&#xa2;" glyph-name="cent" horiz-adv-x="516" d="M252 -11Q203 -7 165 14T100 71T59 153T45 258Q45 315 60 361T102 442T167 498T252 525V629H304V527Q378 523 420 490T463 405Q463 375 447 358T401 340Q374 340 359 357T343 400Q343 420 354
434T386 457V460Q372 468 352 474T302 481V52Q359 54 391 79T444 144L476 123Q467 99 453 77T417 36T368 5T304 -11V-114H252V-11ZM254 475Q200 461 168 416T135 307V234Q135 163 166 116T254 56V475Z" />
<glyph unicode="&#xa3;" glyph-name="sterling" horiz-adv-x="587" d="M67 71Q110 91 133 139T156 244Q156 259 154 274T148 304H57V351H136Q123 391 111 431T99 516Q99 558 114 594T158 655T225 695T314 710Q360 710 397 700T460 673T501 632T516 580Q516 548
499 530T452 511Q423 511 408 529T392 571Q392 615 435 634V637Q420 646 392 651T331 657Q252 657 217 620T181 527Q181 475 194 434T219 351H403V304H229Q231 292 232 280T234 254Q234 222 225 194T200 143T167 103T130 75V71H475V171H525V0H67V71Z" />
<glyph unicode="&#xa4;" glyph-name="currency" horiz-adv-x="610" d="M305 119Q226 119 173 163L72 62L28 106L131 209Q94 266 94 349Q94 432 131 489L28 592L72 636L173 535Q226 579 305 579Q384 579 437 535L538 636L582 592L479 489Q516 432 516 349Q516 266
479 209L582 106L538 62L437 163Q384 119 305 119ZM305 168Q338 168 362 178T403 208T426 252T434 307V391Q434 421 427 446T403 490T363 519T305 530Q272 530 248 520T207 490T184 446T176 391V307Q176 277 183 252T207 208T247 179T305 168Z" />
<glyph unicode="&#xa5;" glyph-name="yen" horiz-adv-x="631" d="M177 46H272V150H98V196H272V303H98V349H247L72 652H16V698H259V652H169L330 365H334L498 652H408V698H615V652H559L379 349H532V303H358V196H532V150H358V46H453V0H177V46Z" />
<glyph unicode="&#xa6;" glyph-name="brokenbar" horiz-adv-x="298" d="M122 221H176V-138H122V221ZM122 760H176V401H122V760Z" />
<glyph unicode="&#xa7;" glyph-name="section" horiz-adv-x="596" d="M274 -154Q203 -154 160 -130T117 -60Q117 -30 133 -13T176 4Q201 4 216 -10T231 -48Q231 -69 221 -79T197 -96V-98Q211 -103 227 -105T260 -108Q321 -108 354 -84T387 -11Q387 30 364 55T301
93L232 113Q194 124 165 137T116 170T86 214T76 273Q76 324 111 362T200 417V421Q133 464 133 551Q133 626 181 668T322 710Q394 710 436 686T479 616Q479 586 463 569T420 552Q395 552 380 566T365 604Q365 625 375 635T399 652V654Q385 659 369 661T336 664Q275
664 242 640T209 567Q209 526 232 501T295 463L364 443Q402 432 431 419T480 386T510 342T520 283Q520 232 486 194T397 139V135Q463 91 463 5Q463 -70 415 -112T274 -154ZM355 157Q397 164 419 190T442 267Q442 305 420 328T355 364L282 385Q271 388 261 391T242
399Q200 392 177 366T154 289Q154 251 176 228T241 192L314 171Q325 168 335 165T355 157Z" />
<glyph unicode="&#xa8;" glyph-name="dieresis" horiz-adv-x="600" d="M209 619Q186 619 173 633T159 668V671Q159 691 172 705T209 720Q232 720 245 706T259 671V668Q259 648 246 634T209 619ZM391 619Q368 619 355 633T341 668V671Q341 691 354 705T391 720Q414
720 427 706T441 671V668Q441 648 428 634T391 619Z" />
<glyph unicode="&#xa9;" glyph-name="copyright" horiz-adv-x="778" d="M398 155Q315 155 270 208T225 348Q225 393 238 429T274 490T331 529T403 543Q462 543 497 517T532 451Q532 429 520 416T485 403Q465 403 454 416T443 448Q443 477 475 491V493Q464 498
449 501T410 505Q358 505 325 471T292 385V331Q292 274 323 240T407 205Q452 205 477 222T516 266L541 251Q534 233 522 216T493 185T452 163T398 155ZM389 35Q450 35 501 56T590 116T648 206T669 319V379Q669 440 649 492T591 582T502 641T389 663Q327 663 276
642T188 582T130 492T109 379V319Q109 258 129 206T187 116T276 57T389 35ZM389 -12Q318 -12 258 13T152 85T82 199T56 349Q56 432 81 499T152 613T257 685T389 710Q459 710 520 685T626 613T696 499T722 349Q722 266 697 199T626 85T520 13T389 -12Z" />
<glyph unicode="&#xaa;" glyph-name="ordfeminine" horiz-adv-x="396" d="M147 346Q96 346 68 371T40 438Q40 488 75 514T197 541H246V589Q246 629 227 650T169 672Q133 672 114 662V659Q123 656 130 647T137 625Q137 608 126 598T97 588Q79 588 68 598T56 629Q56
657 90 680T187 704Q244 704 276 676T308 597V383H358V359Q350 354 338 350T308 346Q251 346 251 399V403H248Q237 380 214 363T147 346ZM170 384Q202 384 224 400T246 449V511H202Q146 511 125 496T104 448V436Q104 410 121 397T170 384Z" />
<glyph unicode="&#xab;" glyph-name="guillemotleft" horiz-adv-x="510" d="M36 262V308L229 487L249 460L122 285L249 110L229 83L36 262ZM242 262V308L435 487L455 460L328 285L455 110L435 83L242 262Z" />
<glyph unicode="&#xac;" glyph-name="logicalnot" horiz-adv-x="600" d="M462 279H66V331H518V81H462V279Z" />
<glyph unicode="&#xad;" glyph-name="uni00AD" horiz-adv-x="393" d="M66 340H327V270H66V340Z" />
<glyph unicode="&#xae;" glyph-name="registered" horiz-adv-x="475" d="M147 416H167V592H147V610H249Q280 610 297 596T314 554Q314 508 272 496L306 434Q316 416 333 416H335V398H324Q304 398 291 404T268 427L233 490H205V416H222V398H147V416ZM237 329Q273
329 302 342T353 378T386 431T398 493V515Q398 547 386 577T353 629T303 665T237 679Q201 679 172 666T121 630T88 577T76 515V493Q76 461 88 431T121 379T171 343T237 329ZM237 298Q196 298 160 313T97 356T55 422T39 504Q39 548 54 586T97 651T160 694T237 710Q277
710 313 695T376 652T419 586T435 504Q435 460 419 422T376 357T313 314T237 298ZM205 511H246Q260 511 267 520T275 543V556Q275 570 268 578T246 587H205V511Z" />
<glyph unicode="&#xaf;" glyph-name="overscore" horiz-adv-x="600" d="M161 699H439V642H161V699Z" />
<glyph unicode="&#xb0;" glyph-name="degree" horiz-adv-x="466" d="M233 368Q197 368 167 381T114 417T79 471T66 539Q66 575 78 606T113 661T166 697T233 710Q269 710 299 697T352 661T387 607T400 539Q400 503 388 472T353 417T300 381T233 368ZM233 418Q258
418 278 427T313 453T336 492T344 539Q344 564 336 586T314 624T279 650T233 660Q208 660 188 651T153 625T130 586T122 539Q122 514 130 492T152 454T187 428T233 418Z" />
<glyph unicode="&#xb1;" glyph-name="plusminus" horiz-adv-x="600" d="M272 365H66V417H272V615H328V417H534V365H328V167H272V365ZM66 52H534V0H66V52Z" />
<glyph unicode="&#xb2;" glyph-name="twosuperior" horiz-adv-x="346" d="M36 382L166 490Q190 510 207 535T224 589V600Q224 631 205 650T152 670Q135 670 124 668T103 660V657Q111 652 116 642T122 622Q122 604 112 593T83 581Q63 581 52 593T41 626Q41 658
75 681T163 704Q226 704 261 677T296 600Q296 550 267 516T199 456L90 386V382H272V427H312V330H36V382Z" />
<glyph unicode="&#xb3;" glyph-name="threesuperior" horiz-adv-x="346" d="M156 324Q96 324 64 348T31 403Q31 423 42 435T73 447Q93 447 102 436T112 407Q112 396 107 387T95 373V370Q112 358 146 358Q186 358 207 376T229 425V440Q229 469 210 486T152 503H119V540H148Q184
540 203 558T222 599V612Q222 641 204 655T154 670Q120 670 105 661V658Q111 653 116 645T122 624Q122 607 112 596T83 584Q63 584 52 596T41 629Q41 658 75 681T162 704Q226 704 260 682T294 612Q294 595 287 581T269 555T242 536T211 526V522Q248 516 274 494T301
434Q301 380 261 352T156 324Z" />
<glyph unicode="&#xb4;" glyph-name="acute" horiz-adv-x="600" d="M266 599L342 776L419 738L293 585L266 599Z" />
<glyph unicode="&#xb5;" glyph-name="mu" horiz-adv-x="619" d="M104 451L30 464V498L186 528V190Q186 45 307 45Q329 45 350 51T389 70T417 102T428 147V451L354 464V498L510 528V65L584 52V18L430 -12V78H426Q420 63 408 47T377 18T333 -3T278 -12Q237 -12 205
2T156 43H152L193 -144V-200H104V451Z" />
<glyph unicode="&#xb6;" glyph-name="paragraph" horiz-adv-x="641" d="M297 -154Q259 -154 227 -146T172 -121T136 -84T122 -37Q122 -7 138 11T183 30Q209 30 222 14T236 -26Q236 -49 224 -63T190 -83V-86Q207 -98 233 -105T297 -112H305V305Q253 305 207 317T127
354T73 415T53 502Q53 551 73 588T127 649T207 686T305 698H566V652H491V74Q491 -40 440 -97T297 -154ZM355 -102Q397 -86 419 -43T441 74V652H355V-102Z" />
<glyph unicode="&#xb7;" glyph-name="middot" horiz-adv-x="324" d="M162 241Q133 241 117 258T100 301V307Q100 332 116 349T162 367Q191 367 207 350T224 307V301Q224 276 208 259T162 241Z" />
<glyph unicode="&#xb8;" glyph-name="cedilla" horiz-adv-x="600" d="M312 -206Q276 -206 256 -193T224 -167L244 -146Q254 -157 268 -163T302 -170Q326 -170 340 -160T355 -128Q355 -112 344 -99T294 -81L266 -78L285 18H323L307 -62L310 -65Q330 -60 346 -60Q378
-60 399 -76T420 -125Q420 -146 412 -161T388 -186T354 -201T312 -206Z" />
<glyph unicode="&#xb9;" glyph-name="onesuperior" horiz-adv-x="360" d="M56 368H164V644L52 602L37 634L178 698H231V368H326V330H56V368Z" />
<glyph unicode="&#xba;" glyph-name="ordmasculine" horiz-adv-x="406" d="M203 380Q228 380 245 388T274 412T290 446T296 488V562Q296 584 291 603T274 638T246 661T203 670Q178 670 161 662T132 638T115 604T110 562V488Q110 466 115 447T131 412T160 389T203
380ZM203 346Q167 346 137 359T86 395T54 452T42 525Q42 565 53 598T86 654T137 691T203 704Q239 704 269 691T320 655T352 598T364 525Q364 485 353 452T320 396T269 359T203 346Z" />
<glyph unicode="&#xbb;" glyph-name="guillemotright" horiz-adv-x="510" d="M55 110L182 285L55 460L75 487L268 308V262L75 83L55 110ZM261 110L388 285L261 460L281 487L474 308V262L281 83L261 110Z" />
<glyph unicode="&#xbc;" glyph-name="onequarter" horiz-adv-x="900" d="M56 368H164V644L52 602L37 634L178 698H231V368H326V330H56V368ZM689 698H751L268 0H206L689 698ZM729 72H542V121L724 368H791V121H847V72H791V0H729V72ZM585 121H729V312H725L585 121Z" />
<glyph unicode="&#xbd;" glyph-name="onehalf" horiz-adv-x="903" d="M56 368H164V644L52 602L37 634L178 698H231V368H326V330H56V368ZM689 698H751L268 0H206L689 698ZM593 52L723 160Q747 180 764 205T781 259V270Q781 301 762 320T709 340Q692 340 681 338T660
330V327Q668 322 673 312T679 292Q679 274 669 263T640 251Q620 251 609 263T598 296Q598 328 632 351T720 374Q783 374 818 347T853 270Q853 220 824 186T756 126L647 56V52H829V97H869V0H593V52Z" />
<glyph unicode="&#xbe;" glyph-name="threequarters" horiz-adv-x="846" d="M156 324Q96 324 64 348T31 403Q31 423 42 435T73 447Q93 447 102 436T112 407Q112 396 107 387T95 373V370Q112 358 146 358Q186 358 207 376T229 425V440Q229 469 210 486T152 503H119V540H148Q184
540 203 558T222 599V612Q222 641 204 655T154 670Q120 670 105 661V658Q111 653 116 645T122 624Q122 607 112 596T83 584Q63 584 52 596T41 629Q41 658 75 681T162 704Q226 704 260 682T294 612Q294 595 287 581T269 555T242 536T211 526V522Q248 516 274 494T301
434Q301 380 261 352T156 324ZM635 698H697L214 0H152L635 698ZM675 72H488V121L670 368H737V121H793V72H737V0H675V72ZM531 121H675V312H671L531 121Z" />
<glyph unicode="&#xbf;" glyph-name="questiondown" horiz-adv-x="487" d="M247 -194Q202 -194 164 -181T99 -144T57 -87T42 -12Q42 33 59 69T106 132T176 174T262 194V311H317V145Q235 142 184 106T132 2V-21Q132 -81 167 -113T259 -145Q296 -145 320 -139T361
-122V-120Q350 -116 338 -101T325 -63Q325 -37 340 -20T384 -2Q412 -2 428 -19T445 -68Q445 -93 429 -115T386 -155T323 -183T247 -194ZM289 402Q260 402 244 419T227 462V468Q227 493 243 510T289 528Q318 528 334 511T351 468V462Q351 437 335 420T289 402Z"
/>
<glyph unicode="&#xc0;" glyph-name="Agrave" horiz-adv-x="686" d="M16 46H69L296 698H391L617 46H670V0H434V46H524L462 227H190L128 46H218V0H16V46ZM204 275H447L330 625H324L204 275ZM224 914L301 952L377 775L350 761L224 914Z" />
<glyph unicode="&#xc1;" glyph-name="Aacute" horiz-adv-x="686" d="M16 46H69L296 698H391L617 46H670V0H434V46H524L462 227H190L128 46H218V0H16V46ZM204 275H447L330 625H324L204 275ZM309 775L385 952L462 914L336 761L309 775Z" />
<glyph unicode="&#xc2;" glyph-name="Acircumflex" horiz-adv-x="686" d="M16 46H69L296 698H391L617 46H670V0H434V46H524L462 227H190L128 46H218V0H16V46ZM204 275H447L330 625H324L204 275ZM192 785L315 934H371L494 785L470 769L343 866L216 769L192 785Z" />
<glyph unicode="&#xc3;" glyph-name="Atilde" horiz-adv-x="686" d="M16 46H69L296 698H391L617 46H670V0H434V46H524L462 227H190L128 46H218V0H16V46ZM204 275H447L330 625H324L204 275ZM404 786Q385 786 368 794T332 813Q314 822 294 831T259 841Q244 841 235
834T206 808L187 828Q212 859 231 877T282 896Q301 896 318 888T354 869Q372 860 392 851T427 841Q442 841 451 848T480 874L499 854Q474 823 455 805T404 786Z" />
<glyph unicode="&#xc4;" glyph-name="Adieresis" horiz-adv-x="686" d="M16 46H69L296 698H391L617 46H670V0H434V46H524L462 227H190L128 46H218V0H16V46ZM204 275H447L330 625H324L204 275ZM252 791Q229 791 216 805T202 840V843Q202 863 215 877T252 892Q275
892 288 878T302 843V840Q302 820 289 806T252 791ZM434 791Q411 791 398 805T384 840V843Q384 863 397 877T434 892Q457 892 470 878T484 843V840Q484 820 471 806T434 791Z" />
<glyph unicode="&#xc5;" glyph-name="Aring" horiz-adv-x="686" d="M16 46H69L296 698H391L617 46H670V0H434V46H524L462 227H190L128 46H218V0H16V46ZM204 275H447L330 625H324L204 275ZM343 782Q371 782 386 798T402 845V875Q402 905 387 921T343 938Q315 938
300 922T284 875V845Q284 815 299 799T343 782ZM343 748Q318 748 297 756T260 780T235 815T226 860Q226 884 235 904T259 940T296 963T343 972Q368 972 389 964T426 940T451 905T460 860Q460 836 451 816T426 780T389 757T343 748Z" />
<glyph unicode="&#xc6;" glyph-name="AE" horiz-adv-x="954" d="M11 46H64L375 652H299V698H884V530H812V649H529V384H727V464H787V255H727V335H529V49H822V177H894V0H368V46H443V227H217L125 46H202V0H11V46ZM238 275H443V652H433L238 275Z" />
<glyph unicode="&#xc7;" glyph-name="Ccedilla" horiz-adv-x="649" d="M354 -206Q318 -206 298 -193T266 -167L286 -146Q296 -157 310 -163T344 -170Q368 -170 382 -160T397 -128Q397 -112 386 -99T336 -81L308 -78L321 -11Q259 -7 209 19T124 92T70 204T50 349Q50
436 71 503T129 616T220 686T337 710Q402 710 445 689T503 635H507V698H579V494H507V546Q507 596 463 626T348 657Q295 657 257 638T194 585T158 507T146 413V292Q146 237 160 193T202 118T270 69T361 52Q432 52 480 89T550 183L589 164Q580 136 562 107T515 52T447
9T359 -11L349 -62L352 -65Q372 -60 388 -60Q420 -60 441 -76T462 -125Q462 -146 454 -161T430 -186T396 -201T354 -206Z" />
<glyph unicode="&#xc8;" glyph-name="Egrave" horiz-adv-x="641" d="M55 46H130V652H55V698H571V530H499V649H216V384H414V464H474V255H414V335H216V49H509V177H581V0H55V46ZM216 914L293 952L369 775L342 761L216 914Z" />
<glyph unicode="&#xc9;" glyph-name="Eacute" horiz-adv-x="641" d="M55 46H130V652H55V698H571V530H499V649H216V384H414V464H474V255H414V335H216V49H509V177H581V0H55V46ZM301 775L377 952L454 914L328 761L301 775Z" />
<glyph unicode="&#xca;" glyph-name="Ecircumflex" horiz-adv-x="641" d="M55 46H130V652H55V698H571V530H499V649H216V384H414V464H474V255H414V335H216V49H509V177H581V0H55V46ZM184 785L307 934H363L486 785L462 769L335 866L208 769L184 785Z" />
<glyph unicode="&#xcb;" glyph-name="Edieresis" horiz-adv-x="641" d="M55 46H130V652H55V698H571V530H499V649H216V384H414V464H474V255H414V335H216V49H509V177H581V0H55V46ZM244 791Q221 791 208 805T194 840V843Q194 863 207 877T244 892Q267 892 280 878T294
843V840Q294 820 281 806T244 791ZM426 791Q403 791 390 805T376 840V843Q376 863 389 877T426 892Q449 892 462 878T476 843V840Q476 820 463 806T426 791Z" />
<glyph unicode="&#xcc;" glyph-name="Igrave" horiz-adv-x="346" d="M55 46H130V652H55V698H291V652H216V46H291V0H55V46ZM311 914L388 952L464 775L437 761L311 914Z" />
<glyph unicode="&#xcd;" glyph-name="Iacute" horiz-adv-x="346" d="M55 46H130V652H55V698H291V652H216V46H291V0H55V46ZM396 775L472 952L549 914L423 761L396 775Z" />
<glyph unicode="&#xce;" glyph-name="Icircumflex" horiz-adv-x="346" d="M55 46H130V652H55V698H291V652H216V46H291V0H55V46ZM279 785L402 934H458L581 785L557 769L430 866L303 769L279 785Z" />
<glyph unicode="&#xcf;" glyph-name="Idieresis" horiz-adv-x="346" d="M55 46H130V652H55V698H291V652H216V46H291V0H55V46ZM339 791Q316 791 303 805T289 840V843Q289 863 302 877T339 892Q362 892 375 878T389 843V840Q389 820 376 806T339 791ZM521 791Q498
791 485 805T471 840V843Q471 863 484 877T521 892Q544 892 557 878T571 843V840Q571 820 558 806T521 791Z" />
<glyph unicode="&#xd0;" glyph-name="Eth" horiz-adv-x="706" d="M55 46H130V325H40V373H130V652H55V698H347Q416 698 473 677T570 612T633 503T656 349Q656 261 634 196T571 87T473 22T347 0H55V46ZM216 49H338Q389 49 430 66T500 115T544 191T560 289V409Q560
463 545 507T501 582T431 631T338 649H216V373H354V325H216V49Z" />
<glyph unicode="&#xd1;" glyph-name="Ntilde" horiz-adv-x="778" d="M55 46H130V652H55V698H224L599 138H603V652H528V698H733V652H658V0H591L189 601H185V46H260V0H55V46ZM453 786Q434 786 417 794T381 813Q363 822 343 831T308 841Q293 841 284 834T255 808L236
828Q261 859 280 877T331 896Q350 896 367 888T403 869Q421 860 441 851T476 841Q491 841 500 848T529 874L548 854Q523 823 504 805T453 786Z" />
<glyph unicode="&#xd2;" glyph-name="Ograve" horiz-adv-x="716" d="M358 41Q409 41 448 59T515 111T556 191T570 292V406Q570 461 556 507T515 586T449 638T358 657Q307 657 268 639T201 587T160 507T146 406V292Q146 237 160 191T201 112T267 60T358 41ZM358
-12Q289 -12 232 13T135 85T72 198T50 349Q50 433 72 499T134 613T232 685T358 710Q427 710 484 685T581 613T644 500T666 349Q666 265 644 199T582 85T484 13T358 -12ZM239 914L316 952L392 775L365 761L239 914Z" />
<glyph unicode="&#xd3;" glyph-name="Oacute" horiz-adv-x="716" d="M358 41Q409 41 448 59T515 111T556 191T570 292V406Q570 461 556 507T515 586T449 638T358 657Q307 657 268 639T201 587T160 507T146 406V292Q146 237 160 191T201 112T267 60T358 41ZM358
-12Q289 -12 232 13T135 85T72 198T50 349Q50 433 72 499T134 613T232 685T358 710Q427 710 484 685T581 613T644 500T666 349Q666 265 644 199T582 85T484 13T358 -12ZM324 775L400 952L477 914L351 761L324 775Z" />
<glyph unicode="&#xd4;" glyph-name="Ocircumflex" horiz-adv-x="716" d="M358 41Q409 41 448 59T515 111T556 191T570 292V406Q570 461 556 507T515 586T449 638T358 657Q307 657 268 639T201 587T160 507T146 406V292Q146 237 160 191T201 112T267 60T358 41ZM358
-12Q289 -12 232 13T135 85T72 198T50 349Q50 433 72 499T134 613T232 685T358 710Q427 710 484 685T581 613T644 500T666 349Q666 265 644 199T582 85T484 13T358 -12ZM207 785L330 934H386L509 785L485 769L358 866L231 769L207 785Z" />
<glyph unicode="&#xd5;" glyph-name="Otilde" horiz-adv-x="716" d="M358 41Q409 41 448 59T515 111T556 191T570 292V406Q570 461 556 507T515 586T449 638T358 657Q307 657 268 639T201 587T160 507T146 406V292Q146 237 160 191T201 112T267 60T358 41ZM358
-12Q289 -12 232 13T135 85T72 198T50 349Q50 433 72 499T134 613T232 685T358 710Q427 710 484 685T581 613T644 500T666 349Q666 265 644 199T582 85T484 13T358 -12ZM419 786Q400 786 383 794T347 813Q329 822 309 831T274 841Q259 841 250 834T221 808L202
828Q227 859 246 877T297 896Q316 896 333 888T369 869Q387 860 407 851T442 841Q457 841 466 848T495 874L514 854Q489 823 470 805T419 786Z" />
<glyph unicode="&#xd6;" glyph-name="Odieresis" horiz-adv-x="716" d="M358 41Q409 41 448 59T515 111T556 191T570 292V406Q570 461 556 507T515 586T449 638T358 657Q307 657 268 639T201 587T160 507T146 406V292Q146 237 160 191T201 112T267 60T358 41ZM358
-12Q289 -12 232 13T135 85T72 198T50 349Q50 433 72 499T134 613T232 685T358 710Q427 710 484 685T581 613T644 500T666 349Q666 265 644 199T582 85T484 13T358 -12ZM267 791Q244 791 231 805T217 840V843Q217 863 230 877T267 892Q290 892 303 878T317 843V840Q317
820 304 806T267 791ZM449 791Q426 791 413 805T399 840V843Q399 863 412 877T449 892Q472 892 485 878T499 843V840Q499 820 486 806T449 791Z" />
<glyph unicode="&#xd7;" glyph-name="multiply" horiz-adv-x="600" d="M96 138L263 305L96 472L133 509L300 342L467 509L504 472L337 305L504 138L467 101L300 268L133 101L96 138Z" />
<glyph unicode="&#xd8;" glyph-name="Oslash" horiz-adv-x="716" d="M89 -17L147 71Q101 119 76 188T50 349Q50 433 72 499T134 613T232 685T358 710Q459 710 532 658L588 742L627 715L569 627Q615 579 640 510T666 349Q666 265 644 199T582 85T484 13T358 -12Q257
-12 184 40L128 -44L89 -17ZM498 605Q472 630 437 643T358 657Q307 657 268 639T201 587T160 507T146 406V292Q146 196 187 131L498 605ZM358 41Q409 41 448 59T515 111T556 191T570 292V406Q570 502 529 567L218 93Q244 68 279 55T358 41Z" />
<glyph unicode="&#xd9;" glyph-name="Ugrave" horiz-adv-x="735" d="M375 -12Q307 -12 259 3T179 52T134 139T120 269V652H45V698H281V652H206V253Q206 200 215 161T244 97T298 58T380 45Q478 45 519 96T560 253V652H485V698H690V652H615V282Q615 206 603 151T563
59T488 6T375 -12ZM264 914L341 952L417 775L390 761L264 914Z" />
<glyph unicode="&#xda;" glyph-name="Uacute" horiz-adv-x="735" d="M375 -12Q307 -12 259 3T179 52T134 139T120 269V652H45V698H281V652H206V253Q206 200 215 161T244 97T298 58T380 45Q478 45 519 96T560 253V652H485V698H690V652H615V282Q615 206 603 151T563
59T488 6T375 -12ZM349 775L425 952L502 914L376 761L349 775Z" />
<glyph unicode="&#xdb;" glyph-name="Ucircumflex" horiz-adv-x="735" d="M375 -12Q307 -12 259 3T179 52T134 139T120 269V652H45V698H281V652H206V253Q206 200 215 161T244 97T298 58T380 45Q478 45 519 96T560 253V652H485V698H690V652H615V282Q615 206 603
151T563 59T488 6T375 -12ZM232 785L355 934H411L534 785L510 769L383 866L256 769L232 785Z" />
<glyph unicode="&#xdc;" glyph-name="Udieresis" horiz-adv-x="735" d="M375 -12Q307 -12 259 3T179 52T134 139T120 269V652H45V698H281V652H206V253Q206 200 215 161T244 97T298 58T380 45Q478 45 519 96T560 253V652H485V698H690V652H615V282Q615 206 603 151T563
59T488 6T375 -12ZM292 791Q269 791 256 805T242 840V843Q242 863 255 877T292 892Q315 892 328 878T342 843V840Q342 820 329 806T292 791ZM474 791Q451 791 438 805T424 840V843Q424 863 437 877T474 892Q497 892 510 878T524 843V840Q524 820 511 806T474 791Z"
/>
<glyph unicode="&#xdd;" glyph-name="Yacute" horiz-adv-x="634" d="M179 46H274V281L73 652H20V698H261V652H171L332 342H336L501 652H411V698H614V652H561L360 286V46H455V0H179V46ZM302 775L378 952L455 914L329 761L302 775Z" />
<glyph unicode="&#xde;" glyph-name="Thorn" horiz-adv-x="625" d="M55 46H130V652H55V698H292V652H216V542H381Q476 542 526 494T577 351Q577 260 527 212T381 164H216V46H292V0H55V46ZM216 213H374Q428 213 456 246T485 329V377Q485 426 457 459T374 493H216V213Z" />
<glyph unicode="&#xdf;" glyph-name="germandbls" horiz-adv-x="646" d="M439 -12Q358 -12 316 16T274 86Q274 110 287 125T322 141Q343 141 355 128T367 94Q367 78 361 67T343 50V46Q360 39 379 36T424 33Q481 33 511 56T542 125Q542 166 522 187T454 220L427
227Q358 247 327 279T295 373Q295 438 342 475T470 517V549Q470 630 436 670T337 711Q266 711 234 672T201 557V0H45V46H119V467H45V516H119V546Q119 594 134 633T178 701T247 744T337 760Q386 760 425 743T493 695T535 625T550 537V473H512Q437 473 404 449T371
387Q371 352 388 333T449 301L475 294Q547 276 583 241T619 146Q619 112 607 83T571 33T514 0T439 -12Z" />
<glyph unicode="&#xe0;" glyph-name="agrave" horiz-adv-x="546" d="M203 -12Q131 -12 91 25T50 128Q50 165 62 193T101 241T173 270T280 280H354V356Q354 417 325 449T236 482Q210 482 188 478T152 465V463Q163 457 173 445T184 411Q184 385 169 371T129 356Q105
356 90 370T74 414Q74 436 87 456T124 493T183 518T264 528Q345 528 390 486T436 368V43H511V8Q500 0 482 -6T440 -12Q401 -12 380 10T359 69V76H354Q347 59 336 43T306 15T263 -4T203 -12ZM238 43Q286 43 320 67T354 143V240H289Q246 240 217 234T171 215T147
184T139 142V121Q139 83 165 63T238 43ZM402 738L479 776L555 599L528 585L402 738Z" />
<glyph unicode="&#xe1;" glyph-name="aacute" horiz-adv-x="546" d="M203 -12Q131 -12 91 25T50 128Q50 165 62 193T101 241T173 270T280 280H354V356Q354 417 325 449T236 482Q210 482 188 478T152 465V463Q163 457 173 445T184 411Q184 385 169 371T129 356Q105
356 90 370T74 414Q74 436 87 456T124 493T183 518T264 528Q345 528 390 486T436 368V43H511V8Q500 0 482 -6T440 -12Q401 -12 380 10T359 69V76H354Q347 59 336 43T306 15T263 -4T203 -12ZM238 43Q286 43 320 67T354 143V240H289Q246 240 217 234T171 215T147
184T139 142V121Q139 83 165 63T238 43ZM487 599L563 776L640 738L514 585L487 599Z" />
<glyph unicode="&#xe2;" glyph-name="acircumflex" horiz-adv-x="546" d="M203 -12Q131 -12 91 25T50 128Q50 165 62 193T101 241T173 270T280 280H354V356Q354 417 325 449T236 482Q210 482 188 478T152 465V463Q163 457 173 445T184 411Q184 385 169 371T129
356Q105 356 90 370T74 414Q74 436 87 456T124 493T183 518T264 528Q345 528 390 486T436 368V43H511V8Q500 0 482 -6T440 -12Q401 -12 380 10T359 69V76H354Q347 59 336 43T306 15T263 -4T203 -12ZM238 43Q286 43 320 67T354 143V240H289Q246 240 217 234T171
215T147 184T139 142V121Q139 83 165 63T238 43ZM370 614L493 763H549L672 614L648 598L521 695L394 598L370 614Z" />
<glyph unicode="&#xe3;" glyph-name="atilde" horiz-adv-x="546" d="M203 -12Q131 -12 91 25T50 128Q50 165 62 193T101 241T173 270T280 280H354V356Q354 417 325 449T236 482Q210 482 188 478T152 465V463Q163 457 173 445T184 411Q184 385 169 371T129 356Q105
356 90 370T74 414Q74 436 87 456T124 493T183 518T264 528Q345 528 390 486T436 368V43H511V8Q500 0 482 -6T440 -12Q401 -12 380 10T359 69V76H354Q347 59 336 43T306 15T263 -4T203 -12ZM238 43Q286 43 320 67T354 143V240H289Q246 240 217 234T171 215T147
184T139 142V121Q139 83 165 63T238 43ZM582 618Q563 618 546 626T510 645Q492 654 472 663T437 673Q422 673 413 666T384 640L365 660Q390 691 409 709T460 728Q479 728 496 720T532 701Q550 692 570 683T605 673Q620 673 629 680T658 706L677 686Q652 655 633
637T582 618Z" />
<glyph unicode="&#xe4;" glyph-name="adieresis" horiz-adv-x="546" d="M203 -12Q131 -12 91 25T50 128Q50 165 62 193T101 241T173 270T280 280H354V356Q354 417 325 449T236 482Q210 482 188 478T152 465V463Q163 457 173 445T184 411Q184 385 169 371T129 356Q105
356 90 370T74 414Q74 436 87 456T124 493T183 518T264 528Q345 528 390 486T436 368V43H511V8Q500 0 482 -6T440 -12Q401 -12 380 10T359 69V76H354Q347 59 336 43T306 15T263 -4T203 -12ZM238 43Q286 43 320 67T354 143V240H289Q246 240 217 234T171 215T147
184T139 142V121Q139 83 165 63T238 43ZM430 619Q407 619 394 633T380 668V671Q380 691 393 705T430 720Q453 720 466 706T480 671V668Q480 648 467 634T430 619ZM612 619Q589 619 576 633T562 668V671Q562 691 575 705T612 720Q635 720 648 706T662 671V668Q662
648 649 634T612 619Z" />
<glyph unicode="&#xe5;" glyph-name="aring" horiz-adv-x="546" d="M203 -12Q131 -12 91 25T50 128Q50 165 62 193T101 241T173 270T280 280H354V356Q354 417 325 449T236 482Q210 482 188 478T152 465V463Q163 457 173 445T184 411Q184 385 169 371T129 356Q105
356 90 370T74 414Q74 436 87 456T124 493T183 518T264 528Q345 528 390 486T436 368V43H511V8Q500 0 482 -6T440 -12Q401 -12 380 10T359 69V76H354Q347 59 336 43T306 15T263 -4T203 -12ZM238 43Q286 43 320 67T354 143V240H289Q246 240 217 234T171 215T147
184T139 142V121Q139 83 165 63T238 43ZM521 613Q549 613 564 629T580 676V706Q580 736 565 752T521 769Q493 769 478 753T462 706V676Q462 646 477 630T521 613ZM521 579Q496 579 475 587T438 611T413 646T404 691Q404 715 413 735T437 771T474 794T521 803Q546
803 567 795T604 771T629 736T638 691Q638 667 629 647T604 611T567 588T521 579Z" />
<glyph unicode="&#xe6;" glyph-name="ae" horiz-adv-x="823" d="M203 -12Q131 -12 91 28T50 133Q50 173 62 203T101 252T173 281T280 291H354V356Q354 417 325 449T236 482Q210 482 188 478T152 465V463Q163 457 173 445T184 411Q184 385 169 371T129 356Q105
356 90 370T74 414Q74 436 87 456T124 493T183 518T264 528Q296 528 321 519T364 495T392 460T406 418H412Q426 466 468 497T572 528Q623 528 661 509T726 456T765 376T778 277V249H437V235Q437 150 479 101T593 52Q624 52 646 57T684 73T711 99T734 135L767 114Q757
88 742 65T705 25T652 -2T580 -12Q543 -12 513 -2T459 24T420 62T397 107H391Q372 44 324 16T203 -12ZM238 43Q286 43 320 67T354 143V251H289Q246 251 217 245T171 225T147 194T139 152V121Q139 83 165 63T238 43ZM437 293H693V310Q693 345 687 376T666 430T629
467T572 481Q538 481 513 469T471 434T446 382T437 317V293Z" />
<glyph unicode="&#xe7;" glyph-name="ccedilla" horiz-adv-x="516" d="M291 -206Q255 -206 235 -193T203 -167L223 -146Q233 -157 247 -163T281 -170Q305 -170 319 -160T334 -128Q334 -112 323 -99T273 -81L245 -78L258 -11Q207 -7 168 13T101 69T60 152T45 258Q45
320 62 370T112 455T188 509T287 528Q368 528 415 494T463 406Q463 374 447 356T401 338Q370 338 355 356T340 399Q340 421 351 437T382 462V465Q369 473 349 477T296 481Q261 481 232 468T181 432T148 377T136 308V234Q136 193 147 160T178 102T227 65T292 52Q353
52 388 77T444 144L476 123Q467 99 452 76T414 34T362 3T296 -11L286 -62L289 -65Q309 -60 325 -60Q357 -60 378 -76T399 -125Q399 -146 391 -161T367 -186T333 -201T291 -206Z" />
<glyph unicode="&#xe8;" glyph-name="egrave" horiz-adv-x="536" d="M279 -12Q224 -12 181 7T107 62T61 147T45 258Q45 318 62 367T110 453T183 508T275 528Q326 528 366 510T433 460T476 382T491 284V261H136V235Q136 150 178 101T292 52Q354 52 390 77T448 144L481
123Q471 97 454 73T411 30T353 0T279 -12ZM136 307H405V317Q405 352 398 382T374 434T334 468T275 481Q241 481 215 469T172 435T145 384T136 319V307ZM411 738L488 776L564 599L537 585L411 738Z" />
<glyph unicode="&#xe9;" glyph-name="eacute" horiz-adv-x="536" d="M279 -12Q224 -12 181 7T107 62T61 147T45 258Q45 318 62 367T110 453T183 508T275 528Q326 528 366 510T433 460T476 382T491 284V261H136V235Q136 150 178 101T292 52Q354 52 390 77T448 144L481
123Q471 97 454 73T411 30T353 0T279 -12ZM136 307H405V317Q405 352 398 382T374 434T334 468T275 481Q241 481 215 469T172 435T145 384T136 319V307ZM496 599L572 776L649 738L523 585L496 599Z" />
<glyph unicode="&#xea;" glyph-name="ecircumflex" horiz-adv-x="536" d="M279 -12Q224 -12 181 7T107 62T61 147T45 258Q45 318 62 367T110 453T183 508T275 528Q326 528 366 510T433 460T476 382T491 284V261H136V235Q136 150 178 101T292 52Q354 52 390 77T448
144L481 123Q471 97 454 73T411 30T353 0T279 -12ZM136 307H405V317Q405 352 398 382T374 434T334 468T275 481Q241 481 215 469T172 435T145 384T136 319V307ZM379 614L502 763H558L681 614L657 598L530 695L403 598L379 614Z" />
<glyph unicode="&#xeb;" glyph-name="edieresis" horiz-adv-x="536" d="M279 -12Q224 -12 181 7T107 62T61 147T45 258Q45 318 62 367T110 453T183 508T275 528Q326 528 366 510T433 460T476 382T491 284V261H136V235Q136 150 178 101T292 52Q354 52 390 77T448
144L481 123Q471 97 454 73T411 30T353 0T279 -12ZM136 307H405V317Q405 352 398 382T374 434T334 468T275 481Q241 481 215 469T172 435T145 384T136 319V307ZM439 619Q416 619 403 633T389 668V671Q389 691 402 705T439 720Q462 720 475 706T489 671V668Q489
648 476 634T439 619ZM621 619Q598 619 585 633T571 668V671Q571 691 584 705T621 720Q644 720 657 706T671 671V668Q671 648 658 634T621 619Z" />
<glyph unicode="&#xec;" glyph-name="igrave" horiz-adv-x="315" d="M50 46H124V451L50 464V498L206 528V46H280V0H50V46ZM47 738L124 776L200 599L173 585L47 738Z" />
<glyph unicode="&#xed;" glyph-name="iacute" horiz-adv-x="315" d="M50 46H124V451L50 464V498L206 528V46H280V0H50V46ZM132 599L208 776L285 738L159 585L132 599Z" />
<glyph unicode="&#xee;" glyph-name="icircumflex" horiz-adv-x="315" d="M50 46H124V451L50 464V498L206 528V46H280V0H50V46ZM15 614L138 763H194L317 614L293 598L166 695L39 598L15 614Z" />
<glyph unicode="&#xef;" glyph-name="idieresis" horiz-adv-x="315" d="M50 46H124V451L50 464V498L206 528V46H280V0H50V46ZM75 619Q52 619 39 633T25 668V671Q25 691 38 705T75 720Q98 720 111 706T125 671V668Q125 648 112 634T75 619ZM257 619Q234 619 221
633T207 668V671Q207 691 220 705T257 720Q280 720 293 706T307 671V668Q307 648 294 634T257 619Z" />
<glyph unicode="&#xf0;" glyph-name="eth" horiz-adv-x="566" d="M278 -12Q223 -12 180 6T106 58T60 140T44 247Q44 306 59 353T104 435T174 487T265 505Q346 505 394 442L398 444Q381 495 354 544T291 631L204 567L175 606L257 666Q234 686 205 709T146 748H230Q244
740 264 726T302 699L385 760L416 721L342 667Q374 637 404 600T459 513T497 404T512 268Q512 126 449 57T278 -12ZM278 37Q344 37 383 78T423 205V288Q423 373 384 414T278 456Q212 456 173 415T133 288V205Q133 120 172 79T278 37Z" />
<glyph unicode="&#xf1;" glyph-name="ntilde" horiz-adv-x="639" d="M50 46H124V451L50 464V498L204 528V438H208Q214 453 226 469T257 498T301 519T356 528Q449 528 489 480T530 334V46H604V0H374V46H448V327Q448 471 327 471Q305 471 284 465T245 446T217 414T206
369V46H280V0H50V46ZM397 618Q378 618 361 626T325 645Q307 654 287 663T252 673Q237 673 228 666T199 640L180 660Q205 691 224 709T275 728Q294 728 311 720T347 701Q365 692 385 683T420 673Q435 673 444 680T473 706L492 686Q467 655 448 637T397 618Z" />
<glyph unicode="&#xf2;" glyph-name="ograve" horiz-adv-x="564" d="M282 37Q319 37 346 49T391 84T417 137T426 204V312Q426 348 418 378T392 431T347 466T282 479Q244 479 217 467T173 432T147 379T138 312V204Q138 168 146 138T172 85T217 50T282 37ZM282 -12Q229
-12 185 7T110 61T62 146T45 258Q45 319 62 369T110 454T185 509T282 528Q335 528 379 509T454 455T502 369T519 258Q519 196 502 147T454 62T379 7T282 -12ZM420 738L497 776L573 599L546 585L420 738Z" />
<glyph unicode="&#xf3;" glyph-name="oacute" horiz-adv-x="564" d="M282 37Q319 37 346 49T391 84T417 137T426 204V312Q426 348 418 378T392 431T347 466T282 479Q244 479 217 467T173 432T147 379T138 312V204Q138 168 146 138T172 85T217 50T282 37ZM282 -12Q229
-12 185 7T110 61T62 146T45 258Q45 319 62 369T110 454T185 509T282 528Q335 528 379 509T454 455T502 369T519 258Q519 196 502 147T454 62T379 7T282 -12ZM505 599L581 776L658 738L532 585L505 599Z" />
<glyph unicode="&#xf4;" glyph-name="ocircumflex" horiz-adv-x="564" d="M282 37Q319 37 346 49T391 84T417 137T426 204V312Q426 348 418 378T392 431T347 466T282 479Q244 479 217 467T173 432T147 379T138 312V204Q138 168 146 138T172 85T217 50T282 37ZM282
-12Q229 -12 185 7T110 61T62 146T45 258Q45 319 62 369T110 454T185 509T282 528Q335 528 379 509T454 455T502 369T519 258Q519 196 502 147T454 62T379 7T282 -12ZM388 614L511 763H567L690 614L666 598L539 695L412 598L388 614Z" />
<glyph unicode="&#xf5;" glyph-name="otilde" horiz-adv-x="564" d="M282 37Q319 37 346 49T391 84T417 137T426 204V312Q426 348 418 378T392 431T347 466T282 479Q244 479 217 467T173 432T147 379T138 312V204Q138 168 146 138T172 85T217 50T282 37ZM282 -12Q229
-12 185 7T110 61T62 146T45 258Q45 319 62 369T110 454T185 509T282 528Q335 528 379 509T454 455T502 369T519 258Q519 196 502 147T454 62T379 7T282 -12ZM600 618Q581 618 564 626T528 645Q510 654 490 663T455 673Q440 673 431 666T402 640L383 660Q408 691
427 709T478 728Q497 728 514 720T550 701Q568 692 588 683T623 673Q638 673 647 680T676 706L695 686Q670 655 651 637T600 618Z" />
<glyph unicode="&#xf6;" glyph-name="odieresis" horiz-adv-x="564" d="M282 37Q319 37 346 49T391 84T417 137T426 204V312Q426 348 418 378T392 431T347 466T282 479Q244 479 217 467T173 432T147 379T138 312V204Q138 168 146 138T172 85T217 50T282 37ZM282
-12Q229 -12 185 7T110 61T62 146T45 258Q45 319 62 369T110 454T185 509T282 528Q335 528 379 509T454 455T502 369T519 258Q519 196 502 147T454 62T379 7T282 -12ZM448 619Q425 619 412 633T398 668V671Q398 691 411 705T448 720Q471 720 484 706T498 671V668Q498
648 485 634T448 619ZM630 619Q607 619 594 633T580 668V671Q580 691 593 705T630 720Q653 720 666 706T680 671V668Q680 648 667 634T630 619Z" />
<glyph unicode="&#xf7;" glyph-name="divide" horiz-adv-x="600" d="M300 61Q272 61 257 78T241 118V124Q241 147 256 164T300 181Q328 181 343 164T359 124V118Q359 95 344 78T300 61ZM300 429Q272 429 257 446T241 486V492Q241 515 256 532T300 549Q328 549
343 532T359 492V486Q359 463 344 446T300 429ZM66 331H534V279H66V331Z" />
<glyph unicode="&#xf8;" glyph-name="oslash" horiz-adv-x="564" d="M48 -11L106 66Q77 101 61 149T45 258Q45 319 62 369T110 454T185 509T282 528Q365 528 425 482L481 554L516 527L458 450Q487 415 503 367T519 258Q519 196 502 147T454 62T379 7T282 -12Q199
-12 139 34L83 -38L48 -11ZM390 434Q372 455 346 467T282 479Q244 479 217 467T173 432T147 379T138 312V204Q138 181 141 161T152 122L390 434ZM282 37Q319 37 346 49T391 84T417 137T426 204V312Q426 335 423 355T412 394L174 82Q192 61 218 49T282 37Z" />
<glyph unicode="&#xf9;" glyph-name="ugrave" horiz-adv-x="619" d="M278 -12Q185 -12 145 36T104 183V451L30 464V498L186 528V190Q186 45 307 45Q329 45 350 51T389 70T417 102T428 147V451L354 464V498L510 528V65L584 52V18L430 -12V78H426Q420 63 408 47T377
18T333 -3T278 -12ZM181 738L258 776L334 599L307 585L181 738Z" />
<glyph unicode="&#xfa;" glyph-name="uacute" horiz-adv-x="619" d="M278 -12Q185 -12 145 36T104 183V451L30 464V498L186 528V190Q186 45 307 45Q329 45 350 51T389 70T417 102T428 147V451L354 464V498L510 528V65L584 52V18L430 -12V78H426Q420 63 408 47T377
18T333 -3T278 -12ZM266 599L342 776L419 738L293 585L266 599Z" />
<glyph unicode="&#xfb;" glyph-name="ucircumflex" horiz-adv-x="619" d="M278 -12Q185 -12 145 36T104 183V451L30 464V498L186 528V190Q186 45 307 45Q329 45 350 51T389 70T417 102T428 147V451L354 464V498L510 528V65L584 52V18L430 -12V78H426Q420 63 408
47T377 18T333 -3T278 -12ZM149 614L272 763H328L451 614L427 598L300 695L173 598L149 614Z" />
<glyph unicode="&#xfc;" glyph-name="udieresis" horiz-adv-x="619" d="M278 -12Q185 -12 145 36T104 183V451L30 464V498L186 528V190Q186 45 307 45Q329 45 350 51T389 70T417 102T428 147V451L354 464V498L510 528V65L584 52V18L430 -12V78H426Q420 63 408
47T377 18T333 -3T278 -12ZM209 619Q186 619 173 633T159 668V671Q159 691 172 705T209 720Q232 720 245 706T259 671V668Q259 648 246 634T209 619ZM391 619Q368 619 355 633T341 668V671Q341 691 354 705T391 720Q414 720 427 706T441 671V668Q441 648 428 634T391
619Z" />
<glyph unicode="&#xfd;" glyph-name="yacute" horiz-adv-x="534" d="M123 -212Q72 -212 49 -191T26 -134Q26 -108 40 -92T80 -76Q103 -76 115 -89T128 -126Q128 -143 120 -153T101 -167V-170Q112 -174 127 -174Q153 -174 178 -152T223 -78L244 -21L54 470H2V516H216V470H144L283
92H287L422 470H350V516H532V470H480L266 -86Q245 -141 210 -176T123 -212ZM505 599L581 776L658 738L532 585L505 599Z" />
<glyph unicode="&#xfe;" glyph-name="thorn" horiz-adv-x="598" d="M25 -154H99V683L25 696V731L181 760V438H185Q202 475 239 501T337 528Q433 528 490 459T548 258Q548 127 491 58T337 -12Q277 -12 240 14T185 77H181V-154H275V-200H25V-154ZM313 45Q382 45
420 91T459 216V300Q459 378 421 424T313 471Q289 471 265 464T223 444T193 412T181 368V148Q181 124 192 105T222 72T265 52T313 45Z" />
<glyph unicode="&#xff;" glyph-name="ydieresis" horiz-adv-x="534" d="M123 -212Q72 -212 49 -191T26 -134Q26 -108 40 -92T80 -76Q103 -76 115 -89T128 -126Q128 -143 120 -153T101 -167V-170Q112 -174 127 -174Q153 -174 178 -152T223 -78L244 -21L54 470H2V516H216V470H144L283
92H287L422 470H350V516H532V470H480L266 -86Q245 -141 210 -176T123 -212ZM448 619Q425 619 412 633T398 668V671Q398 691 411 705T448 720Q471 720 484 706T498 671V668Q498 648 485 634T448 619ZM630 619Q607 619 594 633T580 668V671Q580 691 593 705T630 720Q653
720 666 706T680 671V668Q680 648 667 634T630 619Z" />
<glyph unicode="&#x2013;" glyph-name="endash" horiz-adv-x="587" d="M32 331H555V276H32V331Z" />
<glyph unicode="&#x2014;" glyph-name="emdash" horiz-adv-x="783" d="M32 331H751V276H32V331Z" />
<glyph unicode="&#x2018;" glyph-name="quoteleft" horiz-adv-x="268" d="M134 498Q105 498 89 517T72 563V572Q72 594 80 618T101 666T133 711T173 748H223Q189 718 166 686T136 624H138Q166 624 181 606T196 565V559Q196 533 179 516T134 498Z" />
<glyph unicode="&#x2019;" glyph-name="quoteright" horiz-adv-x="268" d="M45 498Q79 528 102 560T132 622H130Q102 622 87 640T72 681V687Q72 713 89 730T134 748Q163 748 179 729T196 683V674Q196 652 188 628T167 580T135 535T95 498H45V498Z" />
<glyph unicode="&#x201a;" glyph-name="quotesinglbase" horiz-adv-x="268" d="M45 -123Q79 -93 102 -61T132 1H130Q102 1 87 19T72 60V66Q72 92 89 109T134 127Q163 127 179 108T196 62V53Q196 31 188 7T167 -41T135 -86T95 -123H45V-123Z" />
<glyph unicode="&#x201c;" glyph-name="quotedblleft" horiz-adv-x="462" d="M134 498Q105 498 89 517T72 563V572Q72 594 80 618T101 666T133 711T173 748H223Q189 718 166 686T136 624H138Q166 624 181 606T196 565V559Q196 533 179 516T134 498ZM328 498Q299
498 283 517T266 563V572Q266 594 274 618T295 666T327 711T367 748H417Q383 718 360 686T330 624H332Q360 624 375 606T390 565V559Q390 533 373 516T328 498Z" />
<glyph unicode="&#x201d;" glyph-name="quotedblright" horiz-adv-x="462" d="M45 498Q79 528 102 560T132 622H130Q102 622 87 640T72 681V687Q72 713 89 730T134 748Q163 748 179 729T196 683V674Q196 652 188 628T167 580T135 535T95 498H45V498ZM239 498Q273
528 296 560T326 622H324Q296 622 281 640T266 681V687Q266 713 283 730T328 748Q357 748 373 729T390 683V674Q390 652 382 628T361 580T329 535T289 498H239V498Z" />
<glyph unicode="&#x201e;" glyph-name="quotedblbase" horiz-adv-x="462" d="M45 -123Q79 -93 102 -61T132 1H130Q102 1 87 19T72 60V66Q72 92 89 109T134 127Q163 127 179 108T196 62V53Q196 31 188 7T167 -41T135 -86T95 -123H45V-123ZM242 -123Q276 -93 299
-61T329 1H327Q299 1 284 19T269 60V66Q269 92 286 109T331 127Q360 127 376 108T393 62V53Q393 31 385 7T364 -41T332 -86T292 -123H242V-123Z" />
<glyph unicode="&#x2022;" glyph-name="bullet" horiz-adv-x="416" d="M208 185Q153 185 122 218T90 299V309Q90 357 121 390T208 423Q263 423 294 390T326 309V299Q326 251 295 218T208 185Z" />
<glyph unicode="&#x2039;" glyph-name="guilsinglleft" horiz-adv-x="304" d="M36 262V308L229 487L249 460L122 285L249 110L229 83L36 262Z" />
<glyph unicode="&#x203a;" glyph-name="guilsinglright" horiz-adv-x="304" d="M55 110L182 285L55 460L75 487L268 308V262L75 83L55 110Z" />
</font>
</defs>
</svg>
